<?xml version="1.0" standalone="no"?>
<!DOCTYPE svg PUBLIC "-//W3C//DTD SVG 20010904//EN"
 "http://www.w3.org/TR/2001/REC-SVG-20010904/DTD/svg10.dtd">
<svg version="1.0" xmlns="http://www.w3.org/2000/svg"
 width="256.000000pt" height="256.000000pt" viewBox="0 0 256.000000 256.000000"
 preserveAspectRatio="xMidYMid meet">
<metadata>
Created by potrace 1.11, written by Peter Selinger 2001-2013
</metadata>
<g transform="translate(0.000000,256.000000) scale(0.100000,-0.100000)"
fill="#000000" stroke="none">
<path d="M1050 2510 c-153 -28 -303 -85 -418 -157 -29 -18 -56 -33 -61 -33 -5
0 -11 -3 -13 -8 -1 -4 -26 -24 -54 -45 -28 -20 -89 -77 -136 -126 -177 -186
-285 -399 -333 -661 -14 -78 -14 -296 1 -393 56 -367 285 -701 607 -887 139
-80 284 -131 443 -157 73 -12 342 -9 399 5 28 6 61 14 75 16 43 7 178 55 248
88 124 59 234 139 343 247 185 186 291 382 346 641 22 104 24 349 4 460 -64
355 -287 672 -606 862 -109 65 -252 117 -420 153 -72 16 -330 13 -425 -5z
m405 -166 c150 -27 290 -84 425 -172 77 -51 237 -214 291 -297 71 -108 133
-255 153 -360 4 -16 9 -41 12 -55 14 -57 13 -286 -1 -360 -31 -161 -86 -297
-171 -426 -50 -77 -213 -240 -288 -289 -111 -72 -275 -143 -371 -160 -177 -31
-296 -33 -439 -5 -209 41 -375 127 -533 274 -234 218 -356 519 -340 840 14
278 116 507 312 701 106 105 116 113 202 166 219 134 501 188 748 143z"/>
</g>
</svg>
